<?xml version="1.0" standalone="no"?>
<!DOCTYPE svg PUBLIC "-//W3C//DTD SVG 20010904//EN"
 "http://www.w3.org/TR/2001/REC-SVG-20010904/DTD/svg10.dtd">
<svg version="1.0" xmlns="http://www.w3.org/2000/svg"
 width="315.000000pt" height="315.000000pt" viewBox="0 0 315.000000 315.000000"
 preserveAspectRatio="xMidYMid meet">
<metadata>
Created by potrace 1.11, written by Peter Selinger 2001-2013
</metadata>
<g transform="translate(0.000000,315.000000) scale(0.100000,-0.100000)"
fill="#000000" stroke="none">
<path d="M1400 2878 c-84 -145 -153 -267 -154 -273 -1 -5 -6 -18 -12 -28 -9
-16 -46 -17 -577 -18 l-567 0 27 -47 c15 -26 35 -59 45 -74 10 -14 18 -29 18
-33 0 -3 38 -70 84 -148 46 -78 94 -160 106 -182 12 -22 80 -140 151 -261 71
-122 131 -228 134 -236 3 -8 -7 -28 -23 -44 -27 -27 -342 -563 -342 -582 0 -4
167 -8 370 -7 279 1 370 -2 370 -11 0 -6 7 -17 15 -24 8 -6 14 -15 12 -18 -1
-4 6 -18 15 -32 18 -28 216 -371 380 -657 61 -106 114 -193 118 -193 4 0 66
100 137 223 71 122 163 279 204 350 41 70 83 144 94 165 44 81 109 187 118
194 6 3 20 4 31 1 29 -6 666 -6 673 1 3 2 -16 39 -41 81 -25 42 -46 77 -46 79
0 11 -235 404 -251 419 -24 23 -24 25 9 78 33 53 56 101 54 112 -1 4 3 7 8 7
6 0 16 12 23 28 6 15 33 61 59 103 26 42 44 80 41 83 -4 3 -1 6 5 6 7 0 12 6
12 14 0 7 7 19 15 26 9 7 13 15 11 18 -3 2 2 11 10 19 8 8 12 19 9 24 -4 5 -3
9 2 9 7 0 45 56 47 70 1 3 6 12 11 20 18 27 44 74 62 110 9 19 23 41 30 48 7
8 11 18 8 23 -4 5 -2 9 3 9 5 0 15 13 22 30 7 17 17 30 23 30 6 0 7 3 4 6 -4
4 2 19 13 34 11 16 20 31 20 34 0 4 11 24 25 46 14 22 25 43 25 47 0 5 -91 7
-202 6 -515 -6 -952 -2 -964 8 -7 6 -12 18 -12 27 1 14 -279 510 -302 535 -4
5 -76 -110 -160 -255z m570 -402 c0 -2 -7 -7 -16 -10 -8 -3 -12 -2 -9 4 6 10
25 14 25 6z m210 -162 c0 -8 -19 -13 -24 -6 -3 5 1 9 9 9 8 0 15 -2 15 -3z"/>
</g>
</svg>
